<svg width="960" height="960" viewBox="0 0 960 960" fill="none" xmlns="http://www.w3.org/2000/svg">
<g clip-path="url(#clip0_1_49)">
<path d="M575 960C572.25 956.18 575.61 948.81 573.92 945.67C573.16 944.26 563.88 933.29 562.66 932.34C562.05 931.87 558.1 930.09 557.4 930C552.29 929.28 551.31 933.95 548.94 935.44C544.95 937.94 544.46 938.12 540.53 941.03C538.42 942.59 535.29 943.25 533.36 945.86L515.59 940.92C507.92 954.47 491.06 943.15 479.15 944.87C477.03 936.75 486.59 926.54 477.53 919.98C468.85 913.7 462.21 927.97 452.14 921.87C452.02 916.57 451.02 909.5 448.91 904.6C446.98 900.13 434.32 887.78 433.98 885.45C433.18 879.94 443.02 871.02 443.54 864.92C441.21 861.34 439.77 853.68 436.51 851C434.24 849.14 431.49 850.58 429.02 849.49C427.29 848.73 424.45 844.08 424 842C418.32 843.44 419.56 850.99 418.79 855.26C417.55 862.07 408.03 866.26 403.48 870.95C401.28 873.21 393.67 885.4 392.56 885.61C387.83 885.8 386.59 876.68 382.06 875.4C379.7 874.74 377.74 876.87 375.52 876.87C373.3 876.87 371.41 875.1 368.65 875.08C360.52 875.01 355.01 881.24 346.95 874.34L346.02 866C352.3 864.47 357.16 867.11 363.02 868.99L362.43 859.45C368.49 854.9 365.67 850.39 368.03 844C362.35 846.08 360.15 836.71 358.39 836.1C354.91 834.9 351.91 838.57 348.31 833.14C345.64 832.45 340.43 838.04 338.5 839.99C334.24 844.3 330.41 850.51 326.4 854.89C321.39 860.36 317.24 858.65 318.87 869.86C310.24 873.6 303.46 867.2 294.52 866.94C288.32 866.76 285 870.41 279.03 869.97C275.98 860.14 280.09 852.48 281 843C277.54 841.72 274.89 844.55 272.54 844.86C270.35 845.15 267.1 843.71 263.71 845.21C262.03 845.95 262.01 847.74 260.95 848.44C259.55 849.37 251.32 852.52 248.98 853.47C245.34 854.95 240.15 854.86 237 858.5C240.68 859.96 241.84 866.93 239.97 870.23C239.19 871.61 236.92 871.38 237.08 873.33C237.41 877.38 249.27 888.77 249.83 890.72C251.89 897.84 242.16 904.33 236.1 904.51C232.94 904.61 227.67 900.78 223.64 902.04L220.5 893H201C200.23 889.34 196.83 874.57 198.46 872.01C199.03 871.12 200.95 870.87 201.53 869.99C203.54 866.95 195.54 853.45 193.96 849.53C193.09 847.36 193.27 844.96 192.5 842.99C190.86 838.82 186.2 832.57 185.93 828.47C185.58 823.07 191.78 814.91 190.98 808.58C190.79 807.11 187.15 798.85 186.21 797.28C183.59 792.94 180.64 794.16 180 788.5C178.55 775.53 182.02 775.78 190.05 768.53C191.51 767.21 192.64 764.14 193.99 763.47C197.29 761.85 209.29 763.52 215.39 761.87C228.05 758.43 228.62 753.14 235.96 745.44C238.13 743.16 240.53 742.69 242.51 740.99C244.12 739.6 248.26 734.07 248.72 733.96C252.74 732.96 255.57 735.85 258.95 736.55C267.58 738.36 287.63 739.97 296.06 737.53C300.28 736.31 305.97 729.13 310.11 727.56C314.75 725.8 321.25 725.15 326.71 722.18C337.87 716.13 340.23 707.98 346.18 698.65C353.27 687.52 362.45 693.02 372.29 689.76C378.98 687.54 384.9 678.74 391.21 677.59C393.39 677.19 399.06 677.75 401.47 678.04C403.12 678.24 404.35 679.48 405.79 679.73C408.88 680.27 415.54 680.37 418.38 681.93C419.44 682.51 418.84 685.22 420.42 687.09C422.4 689.44 425.74 688.76 427.98 690.53C430.04 692.16 431.86 698.13 434.73 698.85C438 699.67 440.95 694.14 445.32 696.93C446.32 697.57 446.53 699.33 447.48 699.99C449.32 701.26 454.24 702.61 454.91 704.67C455.05 705.11 454.73 713.54 454.55 713.97C453.98 715.33 450.95 717 450.03 718.51L451.49 720.88C454.89 720.07 459.42 718.48 462.78 718.24C464.95 718.09 467.11 719.12 469.52 719.08C472.79 719.03 475.72 716.96 479.01 718.5C480.51 719.2 481.19 721.83 483.57 722.04C486.09 722.26 487.79 719.42 490.59 719.01C494.38 718.47 497.31 720.64 501.1 719.58C502.91 719.07 504.1 716.26 506.49 714.94C508.88 713.62 512.55 713.93 515.11 711.57C517.85 709.04 520.21 696.2 522.85 691.31C523.85 689.46 530.4 680.42 531.71 680.08C535.75 679.02 535.77 686.3 542.14 686.42C553.18 686.62 549.54 676.36 553.7 675.09C559.15 673.43 560.84 681.74 565.43 682.06C574.81 682.72 570.83 676.63 575.74 675.2C582.65 673.18 585.78 676.43 591.01 678.5C592.93 679.26 595.54 678.88 597.34 679.93C599.14 680.98 601.25 687.71 603.53 689.99C606.72 693.19 609.98 692.25 612.6 693.92C614.77 695.3 614.57 698.21 615.69 699.07C617.69 700.59 623.55 700.63 625.38 701.91C626.09 702.41 627.21 706.29 628.59 707.94C635.82 716.53 641.21 710.8 649.54 710.01C652.75 709.71 660.21 709.53 663.07 710.44C664.13 710.78 669.34 715.77 669.81 716.66C671.05 718.98 670.55 722.8 671.21 723.81C673.72 727.72 689.48 725.76 691.82 733.7C692.47 735.9 693.69 745.79 693.92 748.61C694.08 750.64 692.85 752.9 692.97 755.46C693.49 766.37 699.18 762.33 704.28 765.97C712.49 771.83 709.65 778.23 711.23 785.29C711.78 787.72 714.25 789.27 714.81 791.71C715.52 794.76 713.74 800.78 718.01 801.02C713.13 812.69 708.01 799.86 704.71 800.17C695.86 803.86 686.33 808.6 676.52 808.11C674.56 808.01 674.73 805.54 672.06 804.47C668.28 802.96 662.16 803.14 658.03 802.01C657.59 810.69 659.36 819.74 661.32 828.22C665.1 844.6 668.15 860.04 677.19 874.35C679.16 877.46 685.69 881.95 684.82 886.38C684.01 890.52 666.48 900.27 664.01 905.51C651.08 909.6 617.4 913.84 608.12 922.61C607.07 923.6 597.79 936.91 597.49 937.99C595.73 944.48 596.32 953.33 594.02 960.02H575.02L575 960Z" fill="black"/>
<path d="M489 0C487.82 11.6 485.81 23.11 484.17 34.65C482.56 45.96 483.56 58.05 475.02 67.52C465.99 77.55 445.16 80.47 434.67 71.82C422.93 62.13 429.38 42.32 430.87 29.37C431.84 20.95 432.14 12.42 432.99 3.99L442.98 3C441.58 11.01 441.84 19.65 440.97 27.48C440 36.25 435.47 52.7 438.05 60.44C441.35 70.35 456.32 70.35 463.94 65.44C473.69 59.17 473.61 42.42 475.67 32.18L478.98 -0.01H488.98L489 0Z" fill="black"/>
<path d="M0 480L69.99 462L69.01 471.52L50.95 476.46L49.94 479.46L53.25 505.75L73.34 514.92C74.88 516.05 75.27 522.56 75 524.52C74.81 525.9 75.54 526.27 73.52 525.98L2.68 492.83L0 489V480ZM43 479L9.01 486.99C20.93 490.35 32.39 496.43 43.51 501.98C47.14 501.84 42.26 481.88 43 479Z" fill="black"/>
<path d="M960 458V467L887.94 451.55C888.7 449.44 886.39 442.82 889.5 442.98L960.01 457.99L960 458Z" fill="black"/>
<path d="M299.5 432L298.03 436.98L301 437V439.96L297.41 440.94L298.01 445.99C304.81 445.52 312.76 444.24 319.51 444.98C322.59 445.32 336.66 450.36 337.98 448.98C338.35 448.59 337.31 444.52 339.63 444.12C346.47 444.73 353.97 442.12 360.52 441.99C372.55 441.75 384.59 442.46 396.53 442.04C421.43 441.16 447.4 440.1 471.74 436.23C481.66 434.65 487.06 440.07 488.74 426.23C489.96 416.21 485.03 419.33 481.52 413.96C479.95 411.56 479.71 408.02 477.99 405.46C477.94 402.19 486.57 398.37 488.25 394.66C488.98 393.06 489.54 379.54 488.99 378.99C479.24 380.3 466.04 383.23 457.5 376.99C443.9 367.04 443.14 355.42 450.62 341.12C453.81 335.02 457.91 330.66 461.65 325.65C463.13 323.66 475.17 309.09 473.99 308C470.06 309.18 466.46 307.7 462.52 308C458.58 308.3 454.68 310.49 451.44 310.94C447.14 311.54 437.03 311.85 432.46 311.82C427.89 311.79 428.11 308.2 430.51 305.01C432.74 302.05 445.79 300.43 450.43 298.93C457.95 296.5 465.37 292.17 472.72 289.22C478.51 286.9 487.05 285.97 491.26 281.76C491.62 278.09 492.92 272.95 493 269.5C493.79 233.89 490.6 197.86 491.59 162.31C491.83 153.79 488.63 138.58 499.02 135.51C508.83 132.61 523.71 136.56 533.47 137.03C555.03 138.07 583.74 135.74 604.06 141.44C613.27 144.02 610.14 146.97 610.06 153.54C609.72 181.26 608.39 208.85 608.06 236.45C607.86 253.34 607.14 270.2 607.45 287.09L608.25 288.78C610.96 290.49 613.07 291.31 615.91 292.57C623.37 295.89 631.46 299.89 639.33 303.19C644.51 305.36 652.73 304.8 652.82 312.7C652.88 317.94 639.98 314.12 636.16 313.36C632.84 312.71 629.3 309.34 627.02 312.52C630.99 322.27 632.79 334.14 627.23 343.71C623.62 349.92 615.91 352.87 615 360.48C613.76 370.83 616.61 379.92 617.63 389.66C618.36 396.68 618.05 405.51 619.26 412.27C620.11 417.01 629.52 428.23 633.49 431.04C635.03 432.13 637.17 431.76 638.53 433C639.65 434.02 640.5 437.69 642.02 439.51C650.42 449.62 687.79 444.29 700.52 443.95L705.87 446.66C707.25 458.65 704.61 472.82 706 484.53C706.41 487.94 708.39 491.65 708.9 495.62C710.93 511.64 710.75 521.79 720.18 536.35C729.02 550 732.19 552.36 737.51 569.02C751.6 613.12 728.4 658.24 680.46 663.91C664.68 665.78 642.45 653.85 630.13 644.4C627.94 642.72 624.15 636.62 623.48 634.04C622.86 631.66 621.04 620.71 621.01 618.43C620.74 597.76 621.71 576.72 622.04 555.5C622.07 553.57 623.23 551.73 623.03 549.58C622.95 548.69 619.49 540.7 619.08 540.41C616.75 538.74 613.02 542.79 610.48 543C604.79 542.94 610.83 528.38 610.98 525.35C612.11 502.65 613.83 480.24 617.26 457.71C620.37 437.23 614.33 436.06 612.37 418.17C611.47 409.88 610.47 398.79 610 390.52C609.63 384.11 611.69 364.12 608.09 360.44C604.49 356.76 595.86 360.17 594.46 365.91C592.92 372.25 591.6 384.71 591.05 391.5C588.67 420.83 590.65 455.09 566.28 475.96C564.57 477.43 560.25 479.01 558.52 480.97C553.84 486.26 558.63 500.86 559.02 507.51C559.53 516.08 560.56 535.72 558.79 543.25C558.41 544.86 557.25 546.27 556.94 547.91C553.05 548.55 547.98 542.45 545.09 546.61C544.83 546.99 543.08 555.06 543.06 555.6C542.93 558.74 544.19 561.43 543.92 565.35C542.7 582.98 528.23 611.59 513.55 621.99C471.24 651.98 430.96 640.89 383.61 633.9C374.56 632.56 371.18 631.17 361.57 631.02C349.16 630.82 337.01 628.14 329.4 639.9C322.92 636.9 324.2 631.99 327.17 626.61C336.53 609.62 363.41 594.25 382.49 592.93C399.58 591.75 418.08 592.63 435.29 591.73C446.17 586.4 464.45 581 470.23 569.67C476.61 557.17 480.41 535.78 464.97 528.52C457.06 524.8 444.27 523.29 435.55 523.98C406.03 526.3 374.72 533.18 345.43 532.05C343.5 531.98 341.35 533.45 339.67 532.89C338.39 532.47 338.44 530.55 337.54 530.15C335.94 529.44 332.12 531.72 330.49 531.91C317.66 533.41 304.63 533.52 291.9 535.45C288.3 534.23 284.75 532.54 284.11 528.41C283.85 526.74 283.85 517.47 284.1 515.6C284.79 510.4 291.67 505.27 282.06 504.96C282.76 512.59 275.02 503.98 274.46 503.98C271.22 503.98 270.73 506.1 267.07 501.97L268.06 505.96L257.06 507.97C258.55 509.63 258.29 515.6 258.52 515.95C259.06 516.78 260.92 517 261.56 518.01C263.2 520.59 261.41 522.26 267 524.45L265.21 528.32C270.63 533.3 272.98 537.93 272.86 545.46C272.72 553.71 268.68 555.86 265.68 562.07C260.73 572.3 267.99 565.96 269.07 566.41C270.31 566.92 271.04 568.13 270.34 569.65C268.37 573.91 257.52 576.28 258.06 582.96L253.08 579.96L254.08 586.96H261.08L260.06 589.95C265.18 590.56 267.48 592.18 264.83 597.26C264.16 598.54 262.77 598.57 262.15 599.78C260.88 602.27 261.25 608.2 259.46 608.74C257.3 609.38 247.19 608.28 245.57 605.96C244.73 608.97 242.87 607.93 240.08 607.95C242.33 603.39 237.61 602.52 238.25 597.67C238.63 594.79 242.93 593.31 243.4 591.71C244.24 588.84 244.44 582.63 245.11 579.65C245.27 578.93 246.72 579.11 247.02 578.21C247.61 576.43 246.64 573.86 249.07 572.46L245.6 571L245.08 567.96C242.86 570.04 234.71 566.2 233.33 564.73C232.04 563.35 232.28 559.17 229.59 558.06C225.97 562.28 219.18 562.08 214.22 560.83L214.08 555.97L208.6 556.02C208.62 553.66 205.55 550.68 205.26 549.25C204.74 546.61 207.99 543.42 203.56 540.99C201.67 540.3 201.94 543.53 200.64 545.04C199.66 546.17 196.98 549.02 195.57 549.01C195.04 549.01 195.23 547.41 194.32 547.03C192.04 546.07 188.9 547.71 187.08 545.48L190.13 544.34C191.26 534.45 183.8 540.79 181.39 546.06L173.09 545.99L174.08 541C171.07 540.57 168.18 541.56 166.01 543.65C166.56 546.68 168.6 550.53 165.56 553C162.7 551.97 160.65 549.05 157.19 550.12C156.97 550.96 157.05 552.25 156.51 552.87C155.16 554.4 149.27 560.6 148.06 561.51C146.37 562.77 138.04 564.51 135.64 566.04L134.66 564.1L130.09 565.01C129.95 563.22 130.77 561.5 129.42 559.89C128.58 558.9 116.84 555.09 115.48 557.97L116.08 562C111.34 561.47 105.94 560.88 105.22 555.25C104.98 553.34 107.74 550.11 106.08 547.01C109.35 547.59 113.5 544.74 116.38 545.19C118.58 545.54 119.63 547.74 121.17 548.42C128.76 551.76 137.26 556.58 141.1 546.02H142.57C144.62 550.69 149.99 551.69 154.07 548.5L148.03 547.59L140.59 542.02C136.34 551.83 134.33 550.68 126.42 545.66C125.75 545.24 125.62 543.56 124.45 543.17C122 542.35 118.59 543.74 115.77 542.07C114.69 541.43 109.17 534.5 110 532.62C117.6 525.68 125.37 529.01 134.62 527.4C136.66 527.74 137.02 531.53 138.52 533.06C139.91 534.48 143.43 535.54 145.31 536.99C148.12 539.16 149.18 544.44 155.04 541.98C156.43 534.35 149.51 537.95 147.48 536.13C146.25 535.03 146.46 532.91 145.79 532.28C145.12 531.65 143.17 531.91 142.47 531.05C141.77 530.19 143.1 528.52 142.9 528.15C142.5 527.41 138.12 526.44 137.34 525.73C136.51 524.98 136.7 523.31 135.33 521.95C131.64 518.31 128.27 524.52 124.05 520.41L126.03 515.45C136.87 516.82 133.52 509.67 136.05 507.47C137.61 506.11 143.9 504.82 146.07 505.99L144.83 500.17L142.07 499.99V498.51C144.79 496.34 145.42 495.33 144.07 492C152.34 494.11 149.8 491.4 153.07 487.49C158.74 480.71 165.75 474.45 169.83 466.25C180.16 445.49 178.79 421.5 186.07 400.48C182.85 399.74 183.82 395.56 184.5 392.91C184.78 391.82 190.24 381.35 190.78 380.95C191.43 380.46 193.65 379.63 194.05 379.99C198.17 388.16 194.38 394.04 188.07 399.51L188.26 400.85C191.42 400.99 188.75 403.19 190.12 405.35C194.18 411.78 198 404.16 198.77 403.97C203.33 402.82 206.42 408.31 207.63 412.02C208.57 414.9 206.06 418.09 207.98 420.58C210.19 423.45 217.04 417.98 217.92 424.75C218.3 427.64 212.64 433.66 210.01 434.55C207.22 435.49 204.84 429.07 202.52 434.04C200.85 437.63 205.79 440.74 206.05 443.55C206.27 445.83 204.31 447.99 204.47 449.5C204.55 450.33 206.13 451.28 205.95 452.36C205.66 454.19 200.48 456.25 201.06 459L208.05 461C208.35 459.41 207.49 456.31 208.22 455.15C209.26 453.51 220.18 450.07 222.57 448.04C224.81 442.57 225.65 443.24 229.01 440.47C233.44 436.83 233.87 434.81 241.06 435.99L235.05 431.52C231.46 425.85 233.85 418 239.07 414.5C236.62 410.9 234.63 414.85 232.5 415.05C230.51 415.24 229.61 413.53 228.4 413.31C225.4 412.78 223.6 414.95 220.53 410.01C219.9 408.63 223.52 405.32 223.61 402.51C223.71 399.35 221.08 395.27 221.32 391.75C221.78 384.78 227.42 373.67 233.21 369.62C239.32 365.35 261.41 357.61 268.66 358.06C270.78 358.19 271.56 360.64 272.56 360.73C273.47 360.81 276.11 358.56 277.8 358.21C280.29 357.69 282.86 358.32 285.35 357.76C288.2 357.11 291.92 354.3 294.68 354C297.67 353.67 300.39 355.51 303.5 354.16C306.33 354.87 305.71 363.72 307.6 365.97C309.21 367.89 316.55 368.58 316.97 369.12C317.45 369.74 316.71 371.7 317.29 372.75C317.87 373.8 323.46 375.66 325 376.07C326.1 377.58 323.11 383.36 323.19 385.53C323.3 388.29 326.13 393.15 325.58 397.5C325.1 401.34 320.01 408.3 318.91 412.32C317.35 417.96 317.58 425.46 316.96 431.37L315.57 432.76C315.16 432.79 314.82 431.99 314.57 431.99H299.57L299.5 432ZM492.28 472.71C494.26 474.89 509.67 482.81 512.75 483.75C524.54 487.33 538.31 480.61 550.28 479.79C594.1 456.97 579.99 400.71 588.45 359.96C588.83 358.11 590.71 352.38 592.62 352.08C598.1 355.87 605.69 353.53 611.26 350.77C621.83 345.53 624.1 335.7 623.03 324.47C622.12 314.92 616.21 310.87 607.26 309.25C593.03 306.66 600.47 326.16 592.03 333.55C589.2 336.03 577.32 335.1 574 333.51C567.55 330.42 573.59 309.43 570.07 304.44C567.21 300.39 554.58 302.43 549.55 301.96C547.86 301.8 546.41 300.28 545.23 300.18C528.64 298.75 510.21 299.65 493.57 302.09C488.21 302.88 482.32 308.99 478.47 312.99C466.63 325.29 447.83 347.79 453.93 365.55C457.17 374.99 471.46 377.09 480.22 375.74C485.48 374.93 495.45 366.48 495.58 375.49C495.62 378.26 493.7 384.08 494.22 388.24C495.45 398.12 497.99 400.75 508.12 400.4C511.88 400.27 528.09 396.84 530.74 395.31C531.56 394.83 537.47 389.25 537.98 388.5C542.72 381.4 536.28 378.63 532.23 373.51L535.5 369L558.8 387.47L556.48 390.97C545.68 381.54 544.34 390.2 537.5 395.96C530.66 401.72 520.89 404.47 512.24 405.74C507.06 406.5 501.75 405.67 497.05 403.42C495.63 402.74 494.63 400.38 493.34 400.14C492.05 399.9 484.56 403.07 484.95 405.55C484.14 411.33 495.66 415.72 496.07 422.49C493.81 435.11 484.57 448.36 487.02 461.45C487.13 462.06 491.85 472.24 492.26 472.7L492.28 472.71ZM339.76 523.76C342.86 518.3 340.94 512.68 340.96 507.54C340.98 500.64 341.83 460.69 339.02 457.49C335.08 455.62 330.7 453.22 326.54 451.97C316.55 448.96 308.24 451.84 298.4 452.9C286.64 454.16 277.29 451.13 268.49 460.99C264.17 465.82 263.13 471.37 269.05 475.47C275.75 480.11 279.42 475.79 285.49 477.03C287.67 477.47 288.28 479.39 289.7 479.82C292.86 480.76 296.8 479.88 301.17 481.35C307.02 483.32 312.16 490.07 311 496.47C309.98 502.1 295.91 502.61 291.59 510.09C289.73 513.31 287.42 525.03 289.99 527.54C291.24 528.77 296.62 530.18 298.51 530.09C300.95 529.97 302.54 528.3 304.57 528.07C309.37 527.54 314.53 528.44 319.39 527.89C325.9 527.16 333.17 524.77 339.77 523.77L339.76 523.76ZM707.62 626.63C712.01 620.06 713.88 602.59 712.74 594.76C712.41 592.53 709.33 581.82 708.43 580.07C707.53 578.32 702.4 574.16 700.51 572.99C698.62 571.82 696.3 571.95 694.63 570.87C690.92 568.49 678.81 557.44 676.55 553.95C672.03 546.93 672.71 537.72 670.57 530.93C670.44 530.52 666.34 524.01 665.94 523.56C663.73 521.13 654.98 519.76 652.29 520.73C642.71 524.19 644.48 545.4 647.77 552.73C649.87 557.4 660.35 567 664.79 568.92C668.44 570.5 678.61 570.68 678.08 576.49C677.55 582.3 669.23 575.35 667 574.5C661.96 572.58 651.1 569.19 646.29 570.75C637.03 573.76 640.75 585.04 646.65 589.81C648.92 591.65 656.86 593.46 650.7 595.85C644.58 593.66 639.93 589.5 634.35 595.34C624.19 605.98 644.84 614.83 652 619.01C651.6 624.66 647.4 619.54 644.43 619.03C635.8 617.55 639.09 627.09 641.8 631.7C650.92 647.26 677 650.15 691.73 641.21C692.8 640.56 707.02 627.52 707.63 626.62L707.62 626.63Z" fill="black"/>
<path d="M33.66 385.34C35.96 387.54 38.44 391.7 38.01 395L40.07 394.37C48.59 376.56 72.01 389.63 73.92 405.58C73.89 420.05 71.84 434.63 70 449L1.42999 425.01C2.58999 411.45 1.51999 379.59 21.45 379.97C25.07 380.04 31.06 382.86 33.66 385.35V385.34ZM30.71 393.28C30.2 392.67 26.91 390.85 25.98 390.51C10.14 384.71 11.07 408.62 10.95 418.42L32 426C30.94 417.6 36.52 400.23 30.72 393.28H30.71ZM62.99 436C63.38 424.98 71.29 405.42 59.15 398.34C40.64 387.54 40.4 416.13 40.14 427.33C41.07 430.16 59.12 434.68 62.99 436Z" fill="black"/>
<path d="M50.05 673.99L37.27 643.24C33.65 624.59 53.99 615.97 66.99 628C65.79 614.37 77.91 607.92 90.26 610.24C107.78 613.52 112.94 643.34 121 656.48L50.04 673.99H50.05ZM109 649.99C103.83 640.82 98.42 617.65 84.6 619.01C83.04 619.16 77.33 622.18 76.32 623.3C69.63 630.7 82.53 646.66 84.12 654.88L109 649.99ZM76 657.99C72.76 649.24 66.94 630.29 55.53 630.95C37 632.04 50.2 652.74 54.15 661.82L76 657.98V657.99Z" fill="black"/>
<path d="M75.99 532L77.52 541.98C69.94 550 54.52 556.22 53.93 568.53C53.66 574.22 55.99 579.76 57.57 585.07L89.99 583.01L92 593.01L19 598.02C18.85 584.94 4.09998 558.98 12 547.51C16.59 540.84 26.99 538.74 34.41 541.11C41.83 543.48 45.7 551.18 49.51 556.99C52.67 552.02 55.67 547.58 60 543.5C61.52 542.07 72.09 532.99 73.01 532.51C74.03 531.98 74.89 531.89 76.01 532.01L75.99 532ZM50 585.99C44.77 575.29 44.85 552.36 30.48 549.53C26.43 548.73 18.92 550.87 18.02 555.53C16.4 563.98 24.14 578.95 25.13 587.87L49.99 585.99H50Z" fill="black"/>
<path d="M689.01 120.99L728.33 77.14C730.35 78.55 735.81 80.18 734.53 82.98L687.29 135.9L679.17 131.42L686.98 68L646.66 112.86L638.99 108.99L687.63 53.11L695.94 59.41L689 121L689.01 120.99Z" fill="black"/>
<path d="M121.84 268.84L59 265.01L103.07 301.46C104.29 302.65 103.96 303.57 103.59 305C103.26 306.27 100.75 312.13 99.02 310.98L44.16 263.68C45.68 261.31 46.56 256.38 49.53 255.94L92.49 258.01L111.01 260.98L65.15 223.83L68.54 214.96L124.09 259.43C126.46 262.45 122.51 265.65 121.85 268.82L121.84 268.84Z" fill="black"/>
<path d="M865.96 222.01C866.39 225.55 870.26 228.29 868.49 231.94C859.85 242.41 852.8 254.29 844.4 264.9C840.73 269.54 835.76 273.76 832.5 278C831.73 279 830.56 279.27 831.01 281L885.94 263.43C888.27 263.09 892.22 269.95 891.58 271.02L824.37 292.97L822 292.54L818.48 284.05L857 234L801.3 251.84L796.02 244.54L865.96 221.99V222.01Z" fill="black"/>
<path d="M938.01 424L935.95 414.7C955.64 405.28 947.97 378.93 930.2 372.29C914.84 366.55 886.37 369.64 887.96 391.47C888.26 395.61 894.21 409.79 897.42 412.06C899 413.18 913.27 415.2 913.76 412.53L909.99 391.99H919L923.99 423.98L895.52 422.96C889.6 421.84 881.07 400 880.23 394.25C874.04 351.95 940.04 348.41 953.28 384.2C959.26 400.38 955.64 418 938.01 423.99V424Z" fill="black"/>
<path d="M884.56 532.02L947.56 566.01C943.77 579.91 941.82 601.86 926.9 608.4C911.33 615.23 888.31 603.43 879.8 589.69C874.16 580.59 873.34 571.22 875.25 560.75C875.84 557.53 883.01 532.35 884.55 532.01L884.56 532.02ZM938 571.02L889.49 545.03C879.2 565.08 879.6 586.78 902.79 596.71C910.87 600.17 919.16 602.98 926.93 597.44C934.7 591.9 934.72 579.22 938 571.02Z" fill="black"/>
<path d="M556.45 67.44C553.39 70.37 550.42 73.27 546.38 74.88C533.14 80.14 512.8 74.96 499 72.99L523.99 3.42C538.61 6.91 559.02 3.47 567.55 18.94C576.37 34.92 568.7 55.69 556.45 67.43V67.44ZM530.13 13.12L511.43 64.96L512.64 66.86C523.41 66.97 532.52 71.16 543.02 66.52C557.86 59.96 569.75 27.88 553.96 17.55C548.5 13.98 536.67 14.43 530.14 13.12H530.13Z" fill="black"/>
<path d="M659 38.01L655.49 45.03L653.7 45.84L615.97 32.43L604 51.98L641.97 65.08C640.94 66.94 640.41 71.25 638.33 71.9C634 73.25 606.18 60.26 599.6 59.13L587.02 80.51L628.88 96.48L624.99 102.55L573.01 84.5L610.01 21L658.99 38.01H659Z" fill="black"/>
<path d="M893.07 691.9L909.9 651.67L892.02 639L876 676L869.12 671.31L886.01 633.03C879.52 631.02 873.36 622.37 868.01 619.51C867.04 618.99 866.14 618.79 865.06 619.05L848.05 657.56L845.96 658.61L840.15 654.4L862.02 604.01L920.94 648.61L900.49 694.98L898.54 696.01L893.09 691.92L893.07 691.9Z" fill="black"/>
<path d="M847.99 193.02L847.38 195.06L842.26 197.85L839.99 197.56L817.51 169.99C812.08 162.47 801.26 173.87 795.07 176.6L820 208.51C817.33 209.77 814.43 213.48 811.45 211.08L786.36 181.1L765.02 193.5L793 226.51L785.52 232.01L751.02 189.49L814.51 154.16L847.99 193.01V193.02Z" fill="black"/>
<path d="M187.82 114.84L182.4 119.96C180.88 120.28 178.09 115.56 174.42 115.03C158.24 112.71 144.07 138.77 159.97 141.61C173.37 144 197.76 122.81 207.89 144.6C214.58 159 201.66 175.31 189.04 181.53C177.81 187.06 169.25 184.56 162.08 174.63L168.51 168C178.72 186.95 209.7 161.66 198.46 148.04C191.87 140.06 174.26 150.13 165.38 150.86C157.52 151.51 150.46 150.66 146.35 143.15C134.84 122.12 170.84 92.16 187.86 112.68L187.83 114.83L187.82 114.84Z" fill="black"/>
<path d="M293.13 97.15L300.99 93.01C304.87 113.45 339.59 100.41 335.8 83.72C332.38 68.66 301.18 82.37 290.46 71.06C270.82 50.33 313.59 20.27 331.52 41C332.69 42.36 335.34 44.9 334.06 46.53C333.08 47.77 329.24 50.21 327.55 50.07C324.84 49.85 324.57 46.99 322.93 45.59C313.86 37.83 291.48 48.34 295.45 61.08C299.06 72.64 326.47 63.07 336.33 69.19C350.13 77.77 346.76 94.94 335.33 103.85C321.77 114.42 297.73 117.97 293.13 97.17V97.15Z" fill="black"/>
<path d="M94.01 323L92.06 332.58L72.1 330.08L64.47 356.93C68.86 367.42 86 370.2 79 384L20.09 325.57L22.91 316.62L24.47 315.93L94.02 323H94.01ZM64 329.01L30 325.01C36.65 328.8 51.76 349.41 57.49 351.02C59.54 351.6 58.45 350.93 58.68 350.04C60.47 343 62.93 336.22 64 329.01Z" fill="black"/>
<path d="M388.04 20.04L390 85.99L380 88L377.99 23L354.99 28C355.36 25.63 353.69 20.25 356.68 19.18L409.05 6.42C410.54 7.52 410.58 13.38 409.02 14.52L388.04 20.04Z" fill="black"/>
<path d="M766.99 119.98C768.49 117.8 752.31 105.53 750.02 103.5L756.5 98.07L798.98 135.5L792.5 140.98L774.67 126.13L723.98 164.54L717.43 160.01C716.33 158.02 719.21 156.24 720.53 155.02C729.49 146.78 742.69 138.7 752.47 130.97C757.01 127.39 761.09 122.06 766.99 119.97V119.98Z" fill="black"/>
<path d="M120.98 148.01L124.89 155.3L111.24 173.51L153 223.5L146.5 231L105.49 181.01L90.5 198.98L85.03 192.5L120.98 148.01Z" fill="black"/>
<path d="M959.01 493.01L958 502L897.09 484.03L893 520.99L885.11 518.9C885.35 508.73 887.24 498.61 888 488.49C888.29 484.64 886.63 472.98 889.99 471.44L959.02 493.01H959.01Z" fill="black"/>
<path d="M233 356.01C229.06 361.67 221.94 361.22 216.03 363.53C213.37 364.57 211.65 366.55 209.01 367C208.52 363.4 211.93 361.43 214.63 360.13C217.16 358.91 226.27 356 229.02 355.44C230.66 355.11 231.51 355.86 233.01 356.01H233Z" fill="black"/>
<path d="M255 354C254.16 355.5 249.89 356.33 248.2 356.72C244.24 357.63 241.02 357.09 237.45 359.02L235.13 357.37L235 354H255Z" fill="black"/>
<path d="M274.99 351.98C270.93 354.65 266.57 353 263.01 356L263.99 350.43L273.55 349.33L275 351.98H274.99Z" fill="black"/>
<path d="M199.65 375.65C198.89 376.29 196.02 378.57 195.52 378.67C194.99 378.78 192.23 378.04 193 376.51C193.6 375.33 204.12 367.96 205.51 368.03C210.42 368.27 202.37 372.22 202.01 372.53C200.86 373.54 200.43 374.99 199.65 375.64V375.65Z" fill="black"/>
<path d="M515.79 357.78C510.69 360.75 503.8 352.13 503.06 347.44C501.88 339.93 504.11 329.58 510.08 324.53C513.26 321.84 520.1 325.19 521.87 328.63C523.64 332.07 523.49 343.11 522.57 347.07C522.18 348.76 516.71 357.24 515.8 357.78H515.79Z" fill="black"/>
</g>
<defs>
<clipPath id="clip0_1_49">
<rect width="960" height="960" fill="white"/>
</clipPath>
</defs>
</svg>
